<svg width="99" height="80" viewBox="0 0 99 80" fill="none" xmlns="http://www.w3.org/2000/svg">
<path d="M98.2449 44.549C97.6668 40.4896 96.2578 36.6399 94.0557 33.1081C92.1354 30.0258 89.6713 27.2844 86.7301 24.9544L86.7381 24.9471L55.8485 1.27226C55.8262 1.2527 55.803 1.23427 55.7789 1.21704C54.7519 0.431977 53.3615 0 51.8651 0C50.3669 0 48.9221 0.432939 47.7989 1.21954C46.5912 2.06137 45.9009 3.17835 45.8527 4.3673C45.8085 5.47658 46.3388 6.54392 47.3498 7.37593C49.3378 8.94125 51.3214 10.5406 53.3077 12.1419C55.2353 13.6966 57.2216 15.2978 59.1983 16.8565L21.3636 16.8309C17.0368 16.8309 14.0906 18.8584 13.4846 22.2529C13.2183 23.7397 13.6882 25.3744 14.7387 26.6265C15.8532 27.9538 17.4714 28.686 19.2949 28.686L22.1792 28.6879C26.1637 28.6879 30.1658 28.6781 34.1625 28.6684L37.9739 28.6596L3.63565 54.0102L3.49932 54.1097C1.58129 55.5767 0.325619 57.6334 0.0547008 59.7521C-0.150657 61.3573 0.224579 62.824 1.1403 63.9955C2.23169 65.392 3.93568 66.1602 5.93874 66.1602C7.90652 66.1602 9.9144 65.4161 11.5951 64.0613L30.1382 48.918C30.059 49.6575 29.9628 50.7424 29.9738 51.5297C29.9946 52.7764 30.3957 55.2778 31.0306 57.3086C32.3426 61.4821 34.5526 65.3007 37.5988 68.6541C40.7685 72.143 44.6288 74.9094 49.0719 76.8745C53.7691 78.9477 58.8186 80 64.0806 80H64.1294C69.4081 79.9873 74.4736 78.9182 79.1861 76.8214C83.6365 74.833 87.4951 72.0555 90.6528 68.5671C93.6952 65.1965 95.902 61.3717 97.2115 57.2016C97.8593 55.1373 98.2743 53.0074 98.4487 50.8513C98.6105 48.7674 98.5408 46.6469 98.2449 44.549ZM64.4653 64.5525C52.8686 64.5525 43.4645 56.1579 43.4645 45.802C43.4645 35.4473 52.8688 27.0527 64.4653 27.0527C76.0621 27.0527 85.4652 35.4473 85.4652 45.802C85.4656 56.1579 76.0621 64.5525 64.4653 64.5525ZM76.576 44.1544C76.747 47.2452 75.5099 50.1151 73.3373 52.2396C71.1273 54.4039 67.9739 55.7633 64.4475 55.7633C60.9227 55.7633 57.7687 54.4039 55.5579 52.2396C53.3863 50.1151 52.1517 47.2456 52.3217 44.1569C52.4883 41.1546 53.9559 38.5044 56.1665 36.628C58.3402 34.7829 61.259 33.6572 64.4473 33.6572C67.6361 33.6572 70.5541 34.7833 72.728 36.628C74.9397 38.5044 76.4077 41.1527 76.576 44.1544Z" fill="url(#paint0_linear)"/>
<defs>
<linearGradient id="paint0_linear" x1="1.61531" y1="40" x2="98.5337" y2="40" gradientUnits="userSpaceOnUse">
<stop stop-color="#67CB99"/>
<stop offset="1" stop-color="#7ACE68"/>
</linearGradient>
</defs>
</svg>
