<svg width="85" height="89" viewBox="0 0 85 89" fill="none" xmlns="http://www.w3.org/2000/svg">
<path d="M55.4195 44.1585L70.6666 17.4719L78.034 44.1585L70.6662 70.8387L55.4195 44.1585ZM47.9883 48.4924L63.2373 75.1746L36.68 68.2783L17.4941 48.4924H47.9883ZM63.234 13.1348L47.9883 39.8214H17.4941L36.68 20.0341L63.234 13.1348ZM85 35.0765L75.6983 0L40.9798 9.40048L35.8404 18.5593L25.4119 18.4835L0 44.1609L25.4119 69.8322H25.4129L35.8371 69.7541L40.9838 78.9129L75.6983 88.3117L84.9997 53.2419L79.7172 44.1589L84.9997 35.0772L85 35.0765Z" fill="url(#paint0_linear)"/>
<defs>
<linearGradient id="paint0_linear" x1="1.39344" y1="44.1559" x2="85" y2="44.1559" gradientUnits="userSpaceOnUse">
<stop stop-color="#67CB99"/>
<stop offset="1" stop-color="#7ACE68"/>
</linearGradient>
</defs>
</svg>
