<svg width="241" height="164" viewBox="0 0 241 164" fill="none" xmlns="http://www.w3.org/2000/svg">
<path opacity="0.2" d="M240.293 77.1451C238.88 67.1995 235.433 57.7678 230.047 49.1148C225.351 41.5631 219.324 34.8468 212.13 29.1383L212.149 29.1204L136.598 -28.883C136.543 -28.9309 136.487 -28.976 136.428 -29.0183C133.916 -30.9417 130.515 -32 126.855 -32C123.191 -32 119.657 -30.9393 116.909 -29.0121C113.956 -26.9497 112.267 -24.213 112.149 -21.3001C112.041 -18.5824 113.338 -15.9674 115.811 -13.929C120.673 -10.0939 125.525 -6.17548 130.383 -2.2523C135.098 1.55679 139.956 5.4795 144.791 9.29849L52.2523 9.23579C41.6696 9.23579 34.4637 14.2032 32.9814 22.5195C32.3301 26.1622 33.4794 30.1674 36.0488 33.235C38.7748 36.4868 42.7326 38.2806 47.1928 38.2806L54.2473 38.2853C63.9929 38.2853 73.7814 38.2613 83.5568 38.2377L92.8789 38.216L8.89229 100.325L8.55886 100.569C3.86763 104.163 0.79642 109.202 0.133791 114.393C-0.368488 118.325 0.54929 121.919 2.78903 124.789C5.45841 128.211 9.62614 130.092 14.5254 130.092C19.3383 130.092 24.2493 128.269 28.3599 124.95L73.714 87.8493C73.5202 89.6609 73.2848 92.3188 73.3117 94.2479C73.3626 97.3022 74.3436 103.431 75.8967 108.406C79.1056 118.631 84.5109 127.987 91.9615 136.203C99.7141 144.75 109.156 151.528 120.023 156.343C131.512 161.422 143.862 164 156.732 164H156.852C169.763 163.969 182.152 161.35 193.678 156.213C204.563 151.341 214.001 144.536 221.724 135.99C229.166 127.732 234.563 118.361 237.766 108.144C239.35 103.087 240.365 97.8681 240.792 92.5856C241.188 87.4801 241.017 82.285 240.293 77.1451ZM157.673 126.154C129.309 126.154 106.308 105.587 106.308 80.215C106.308 54.8459 129.31 34.2792 157.673 34.2792C186.038 34.2792 209.036 54.8459 209.036 80.215C209.037 105.587 186.038 126.154 157.673 126.154ZM187.294 76.1782C187.713 83.7507 184.687 90.782 179.373 95.9869C173.968 101.29 166.255 104.62 157.63 104.62C149.009 104.62 141.294 101.29 135.887 95.9869C130.576 90.782 127.556 83.7516 127.972 76.1844C128.379 68.8288 131.969 62.3359 137.376 57.7386C142.692 53.2181 149.831 50.4603 157.629 50.4603C165.429 50.4603 172.566 53.219 177.883 57.7386C183.292 62.3359 186.883 68.8241 187.294 76.1782Z" fill="#BEBEBF"/>
</svg>
